<svg xmlns="http://www.w3.org/2000/svg" width="1200" height="675" viewBox="0 0 1200 675" role="img" aria-label="E.R. Fitness equipment library visual">
  <rect width="1200" height="675" fill="#070809"/>
  <defs>
    <linearGradient id="g" x1="0" x2="1" y1="0" y2="1">
      <stop offset="0" stop-color="#ff6a00" stop-opacity=".95"/>
      <stop offset="1" stop-color="#8cff00" stop-opacity=".9"/>
    </linearGradient>
  </defs>
  <rect x="52" y="52" width="1096" height="571" rx="34" fill="#111419" stroke="#ffffff" stroke-opacity=".12"/>
  <text x="88" y="132" fill="#8cff00" font-family="Arial, sans-serif" font-size="30" font-weight="800">E.R. FITNESS EQUIPMENT LIBRARY</text>
  <text x="88" y="178" fill="#ffffff" font-family="Arial, sans-serif" font-size="54" font-weight="900">Tools, setup, safety, and substitutions</text>
  <g stroke="url(#g)" stroke-width="18" stroke-linecap="round" stroke-linejoin="round" fill="none">
    <path d="M132 348h162"/>
    <path d="M132 290v116M294 290v116"/>
    <path d="M408 396c54-78 142-78 196 0"/>
    <path d="M506 284v172"/>
    <path d="M736 278h116v150H736z"/>
    <path d="M794 278v-62"/>
    <path d="M930 420h128"/>
    <path d="M958 360v120M1030 360v120"/>
  </g>
  <g fill="#ffffff" font-family="Arial, sans-serif" font-size="22" font-weight="700">
    <text x="130" y="478">dumbbells</text>
    <text x="430" y="478">kettlebells</text>
    <text x="730" y="478">machines</text>
    <text x="930" y="478">barbells</text>
  </g>
  <rect x="88" y="548" width="1018" height="38" rx="19" fill="#ff6a00" fill-opacity=".14"/>
  <text x="116" y="574" fill="#f4f4f5" font-family="Arial, sans-serif" font-size="20" font-weight="700">Photos are owner-created, AI-generated with rights, public-domain, Creative Commons, or licensed before publishing.</text>
</svg>
