<svg xmlns="http://www.w3.org/2000/svg" viewBox="0 0 960 540" role="img" aria-labelledby="title desc">
  <title id="title">Exercise library teaching card</title>
  <desc id="desc">A stylized exercise library board with setup, execution, cues, mistakes, and progressions.</desc>
  <rect width="960" height="540" fill="#08090b"/>
  <rect x="52" y="50" width="856" height="440" rx="28" fill="#12161b" stroke="#2b3138" stroke-width="3"/>
  <rect x="94" y="96" width="320" height="348" rx="24" fill="#1c2228" stroke="#ff6a00" stroke-width="4"/>
  <circle cx="254" cy="180" r="42" fill="#8cff00"/>
  <path d="M254 222v88m-76-42h152m-100 42-52 72m100-72 52 72" stroke="#f7f7f7" stroke-width="18" stroke-linecap="round"/>
  <g fill="#1a1f25" stroke="#33404a" stroke-width="3">
    <rect x="462" y="106" width="348" height="58" rx="12"/>
    <rect x="462" y="186" width="348" height="58" rx="12"/>
    <rect x="462" y="266" width="348" height="58" rx="12"/>
    <rect x="462" y="346" width="348" height="58" rx="12"/>
  </g>
  <g fill="#f7f7f7" font-family="Arial, sans-serif" font-weight="700" font-size="24">
    <text x="494" y="143">SETUP</text>
    <text x="494" y="223">EXECUTION</text>
    <text x="494" y="303">CUES + MISTAKES</text>
    <text x="494" y="383">REGRESS / PROGRESS</text>
  </g>
  <g fill="#8cff00">
    <circle cx="772" cy="135" r="10"/>
    <circle cx="772" cy="215" r="10"/>
    <circle cx="772" cy="295" r="10"/>
    <circle cx="772" cy="375" r="10"/>
  </g>
</svg>
