<svg xmlns="http://www.w3.org/2000/svg" width="1200" height="675" viewBox="0 0 1200 675" role="img" aria-label="E.R. Fitness learning paths visual">
  <rect width="1200" height="675" fill="#070809"/>
  <rect x="54" y="54" width="1092" height="567" rx="34" fill="#111419" stroke="#ffffff" stroke-opacity=".12"/>
  <text x="90" y="132" fill="#8cff00" font-family="Arial, sans-serif" font-size="30" font-weight="800">LEARNING PATHS</text>
  <text x="90" y="180" fill="#ffffff" font-family="Arial, sans-serif" font-size="54" font-weight="900">Start simple. Build skill. Earn trust.</text>
  <g font-family="Arial, sans-serif" font-weight="800">
    <g transform="translate(105 280)">
      <rect width="160" height="118" rx="18" fill="#ff6a00" fill-opacity=".18" stroke="#ff6a00"/>
      <text x="24" y="50" fill="#fff" font-size="26">Beginner</text>
      <text x="24" y="82" fill="#d4d4d8" font-size="18">fitness basics</text>
    </g>
    <g transform="translate(300 250)">
      <rect width="160" height="148" rx="18" fill="#8cff00" fill-opacity=".16" stroke="#8cff00"/>
      <text x="24" y="62" fill="#fff" font-size="26">Strength</text>
      <text x="24" y="94" fill="#d4d4d8" font-size="18">training basics</text>
    </g>
    <g transform="translate(495 220)">
      <rect width="160" height="178" rx="18" fill="#ff6a00" fill-opacity=".18" stroke="#ff6a00"/>
      <text x="24" y="74" fill="#fff" font-size="26">Nutrition</text>
      <text x="24" y="106" fill="#d4d4d8" font-size="18">food foundations</text>
    </g>
    <g transform="translate(690 190)">
      <rect width="160" height="208" rx="18" fill="#8cff00" fill-opacity=".16" stroke="#8cff00"/>
      <text x="24" y="86" fill="#fff" font-size="26">Recovery</text>
      <text x="24" y="118" fill="#d4d4d8" font-size="18">sleep and mobility</text>
    </g>
    <g transform="translate(885 160)">
      <rect width="190" height="238" rx="18" fill="#ff6a00" fill-opacity=".18" stroke="#ff6a00"/>
      <text x="24" y="98" fill="#fff" font-size="26">Contributor</text>
      <text x="24" y="130" fill="#d4d4d8" font-size="18">review workflow</text>
    </g>
  </g>
  <path d="M185 468h810" stroke="#ffffff" stroke-opacity=".24" stroke-width="8" stroke-linecap="round"/>
  <path d="M995 468l-34-24M995 468l-34 24" stroke="#8cff00" stroke-width="8" stroke-linecap="round"/>
</svg>
